<?xml version="1.0" standalone="no"?>
<!DOCTYPE svg PUBLIC "-//W3C//DTD SVG 20010904//EN"
 "http://www.w3.org/TR/2001/REC-SVG-20010904/DTD/svg10.dtd">
<svg version="1.0" xmlns="http://www.w3.org/2000/svg"
 width="512.000000pt" height="512.000000pt" viewBox="0 0 512.000000 512.000000"
 preserveAspectRatio="xMidYMid meet">
<metadata>
Created by potrace 1.11, written by Peter Selinger 2001-2013
</metadata>
<g transform="translate(0.000000,512.000000) scale(0.100000,-0.100000)"
fill="#000000" stroke="none">
<path d="M2190 4047 c-22 -11 -49 -35 -62 -56 l-23 -36 -1 -548 c0 -301 -3
-550 -6 -553 -4 -3 -150 -6 -327 -6 -312 0 -321 0 -352 -21 -50 -34 -70 -68
-74 -125 -2 -41 2 -58 20 -82 36 -48 1087 -1099 1120 -1119 33 -20 92 -25 130
-11 35 13 1134 1116 1150 1154 29 70 -14 168 -86 195 -15 5 -153 10 -315 10
-159 0 -303 1 -319 1 l-31 0 0 553 0 552 -25 37 c-45 70 -53 72 -426 73 -306
0 -336 -1 -373 -18z"/>
<path d="M1378 1345 c-50 -46 -48 -126 4 -170 l30 -25 1141 0 c628 0 1151 3
1162 6 35 10 60 54 60 107 0 42 -4 52 -33 78 l-32 29 -1153 0 -1153 0 -26 -25z"/>
</g>
</svg>
